<?xml version="1.0" encoding="utf-8"?>
<svg viewBox="0 0 500 500" xmlns="http://www.w3.org/2000/svg">
  <ellipse style="fill: rgb(81, 164, 219);" cx="250" cy="250" rx="250" ry="250"/>
  <path fill="#010101" d="M 390.562 234.383 L 328.078 296.847 C 293.589 331.357 237.64 331.357 203.151 296.847 C 197.716 291.433 193.467 285.328 189.735 279.03 L 218.767 249.998 C 220.148 248.607 221.852 247.809 223.48 246.871 C 225.486 253.73 228.99 260.222 234.383 265.614 C 251.606 282.848 279.635 282.826 296.846 265.614 L 359.309 203.151 C 376.543 185.917 376.543 157.899 359.309 140.677 C 342.097 123.454 314.08 123.454 296.846 140.677 L 274.63 162.914 C 256.609 155.894 237.187 154.007 218.281 156.778 L 265.614 109.445 C 300.124 74.946 356.052 74.946 390.562 109.445 C 425.051 143.946 425.051 199.884 390.562 234.383 Z M 225.378 337.094 L 203.151 359.332 C 185.929 376.544 157.9 376.544 140.677 359.332 C 123.455 342.098 123.455 314.08 140.677 296.847 L 203.151 234.384 C 220.385 217.15 248.392 217.15 265.615 234.384 C 270.996 239.766 274.501 246.258 276.529 253.106 C 278.168 252.157 279.851 251.38 281.231 250 L 310.263 220.979 C 306.553 214.659 302.282 208.577 296.847 203.152 C 262.358 168.653 206.409 168.653 171.909 203.152 L 109.446 265.616 C 74.947 300.126 74.947 356.053 109.446 390.563 C 143.945 425.052 199.884 425.052 234.384 390.563 L 281.727 343.22 C 262.811 346.002 243.388 344.104 225.378 337.094 Z" style=""/>
</svg>